<?xml version="1.0" encoding="UTF-8"?>
<svg width="26px" height="26px" viewBox="0 0 26 26" version="1.1" xmlns="http://www.w3.org/2000/svg" xmlns:xlink="http://www.w3.org/1999/xlink">
    <title>形状结合</title>
    <g id="页面-1" stroke="none" stroke-width="1" fill="none" fill-rule="evenodd">
        <g id="画板" transform="translate(-840.000000, -339.000000)" fill="#fff" fill-rule="nonzero">
            <path d="M863,339.25 C864.518783,339.25 865.75,340.481217 865.75,342 L865.75,362 C865.75,363.518783 864.518783,364.75 863,364.75 L843,364.75 C841.481217,364.75 840.25,363.518783 840.25,362 L840.25,342 C840.25,340.481217 841.481217,339.25 843,339.25 Z M863,340.75 L843,340.75 C842.309644,340.75 841.75,341.309644 841.75,342 L841.75,362 C841.75,362.690356 842.309644,363.25 843,363.25 L863,363.25 C863.690356,363.25 864.25,362.690356 864.25,362 L864.25,342 C864.25,341.309644 863.690356,340.75 863,340.75 Z M852.271738,344 C852.47259,344 852.643469,344.071146 852.786188,344.215465 C852.927947,344.355518 852.999307,344.52661 852.999307,344.728848 C852.999307,344.928847 852.92784,345.100046 852.786188,345.242232 C852.643469,345.384417 852.47259,345.455564 852.271738,345.455564 L847.180892,345.455564 C846.980147,345.455564 846.808628,345.526603 846.667082,345.668896 C846.52415,345.811081 846.453537,345.982173 846.453537,346.184412 L846.453537,357.819961 C846.453537,358.01996 846.52415,358.191052 846.667082,358.333238 C846.808628,358.475423 846.980147,358.54657 847.180892,358.54657 L858.817081,358.54657 C859.017933,358.54657 859.188812,358.475423 859.331531,358.333238 C859.47329,358.191052 859.54465,358.019853 859.54465,357.819855 L859.54465,352.728902 C859.54465,352.528903 859.616116,352.357811 859.757768,352.215625 C859.900381,352.073333 860.071473,352.002293 860.272432,352.002293 C860.473284,352.002293 860.644162,352.073333 860.786881,352.215625 C860.928427,352.357811 861,352.528903 861,352.728902 L861,357.820068 C861,358.422197 860.786881,358.93558 860.360858,359.362244 C859.93462,359.788908 859.420171,360 858.818468,360 L847.181852,360 C846.579403,360 846.065806,359.788801 845.639356,359.362138 C845.213119,358.935474 845,358.422197 845,357.819961 L845,346.184519 C845,345.582283 845.213119,345.069006 845.639356,344.642342 C846.065806,344.215679 846.579403,344.002347 847.181852,344.002347 L852.271738,344 Z M860.271792,344 C860.472857,344 860.644162,344.071146 860.785921,344.215465 C860.928427,344.355518 860.999573,344.52661 860.999573,344.728848 L860.999573,349.091166 C860.999573,349.293405 860.928427,349.464497 860.786028,349.606789 C860.644162,349.748975 860.472857,349.820121 860.271792,349.820121 C860.070833,349.820121 859.899527,349.748975 859.757662,349.606789 C859.615049,349.464497 859.544223,349.293405 859.544223,349.091166 L859.544223,346.484463 L853.509703,352.517703 C853.369971,352.657756 853.199519,352.728902 852.998347,352.728902 C852.789921,352.728902 852.616803,352.659889 852.47835,352.522183 C852.339898,352.382131 852.271205,352.208799 852.271205,352.002187 C852.271205,351.799948 852.340858,351.630989 852.481017,351.488803 L858.515643,345.455564 L855.907661,345.455564 C855.706702,345.455564 855.535823,345.384417 855.393104,345.242232 C855.251558,345.099939 855.179985,344.928847 855.179985,344.728848 C855.179985,344.52661 855.251558,344.355518 855.393104,344.213332 C855.535823,344.071146 855.706702,344 855.907554,344 L860.271792,344 Z" id="形状结合"></path>
        </g>
    </g>
</svg>