<?xml version="1.0" standalone="no"?><!DOCTYPE svg PUBLIC "-//W3C//DTD SVG 1.1//EN" "http://www.w3.org/Graphics/SVG/1.1/DTD/svg11.dtd"><svg t="1666940702321" class="icon" viewBox="0 0 1024 1024" version="1.1" xmlns="http://www.w3.org/2000/svg" p-id="8633" xmlns:xlink="http://www.w3.org/1999/xlink" width="200" height="200"><path d="M832 192S640 170 544 78.026C532 64 521.153 64 512 64s-20 0-32 12.026C384 168 192 192 192 192c-35.2 0-64 28.8-64 64v352c0 96 192 352 384 352s384-256 384-352V256c0-35.2-28.8-64-64-64z m-73.368 202.601L478.929 674.304c-0.104 0.107-0.191 0.223-0.297 0.328-6.249 6.249-14.441 9.372-22.632 9.368-8.191 0.004-16.383-3.118-22.632-9.368-0.106-0.106-0.193-0.222-0.297-0.328L265.368 506.601c-12.491-12.491-12.491-32.742 0-45.233s32.742-12.491 45.233 0L456 606.767l257.399-257.399c12.491-12.491 32.742-12.491 45.233 0s12.491 32.742 0 45.233z" p-id="8634"></path></svg>