<?xml version="1.0" encoding="UTF-8"?>
<svg width="448px" height="448px" viewBox="0 0 448 448" version="1.1" xmlns="http://www.w3.org/2000/svg" xmlns:xlink="http://www.w3.org/1999/xlink">
    <g id="页面-1" stroke="none" stroke-width="1" fill="none" fill-rule="evenodd">
        <g id="2.无法下载弹窗指引" transform="translate(-262.000000, -142.000000)" fill-rule="nonzero">
            <g id="燕尾箭头" transform="translate(262.000000, 142.000000)">
                <rect id="矩形" fill="#000000" opacity="0" x="0" y="0" width="448" height="448"></rect>
                <path d="M143.445308,420 L136.053896,304.784459 L29,247.990298 L67.0802572,238.177082 C68.2526125,237.871951 179.639966,208.534306 266.811665,135.927191 L229.597397,97.3358096 L420,26 L352.70918,225.058648 L323.141776,194.398915 C262.631391,279.818896 168.933391,390.051218 167.91378,391.220521 L143.444431,420 L143.445308,420 Z M110.258131,256.532646 L165.467679,285.819509 L169.087013,342.206975 C203.752034,300.361157 267.525349,221.856307 308.613964,161.808147 L319.217392,146.300324 L339.812395,167.6551 L370.398972,77.1503365 L283.838248,109.589634 L310.856406,137.605192 L299.182452,148.180578 C234.491794,206.804648 155.220653,240.668473 110.258131,256.531771 L110.258131,256.532646 Z" id="形状" fill="#FFFFFF"></path>
            </g>
        </g>
    </g>
</svg>