<?xml version="1.0" encoding="UTF-8"?>
<svg width="200px" height="152px" viewBox="0 0 200 152" version="1.1" xmlns="http://www.w3.org/2000/svg" xmlns:xlink="http://www.w3.org/1999/xlink">
    <g id="页面-1" stroke="none" stroke-width="1" fill="none" fill-rule="evenodd">
        <g id="1.下载熊猫巡护app" transform="translate(-286.000000, -454.000000)" fill-rule="nonzero">
            <g id="熊猫" transform="translate(286.000000, 454.000000)">
                <path d="M0,27.5863289 C0,42.8218373 12.3508198,55.1726571 27.5863281,55.1726571 C42.8218365,55.1726571 55.1726562,42.8218373 55.1726562,27.5863289 C55.1726562,12.3508206 42.8218365,8.22136638e-07 27.5863281,8.22136638e-07 C12.3508198,8.22136638e-07 0,12.3508206 0,27.5863289 L0,27.5863289 Z" id="路径" fill="#504B5A"></path>
                <path d="M13.7933594,27.5863289 C13.7933594,35.2039752 19.9686818,41.3792977 27.5863281,41.3792977 C35.2039744,41.3792977 41.3792969,35.2039752 41.3792969,27.5863289 C41.3792969,19.9686827 35.2039744,13.7933602 27.5863281,13.7933602 C19.9686818,13.7933602 13.7933594,19.9686827 13.7933594,27.5863289 Z" id="路径" fill="#625D6B"></path>
                <path d="M144.827344,27.5863289 C144.827344,37.4419749 150.085268,46.5489675 158.620508,51.4767906 C167.155747,56.4046137 177.671596,56.4046137 186.206836,51.4767906 C194.742076,46.5489675 200,37.4419749 200,27.5863289 C200,17.730683 194.742076,8.62369039 186.206836,3.69586731 C177.671596,-1.23195577 167.155747,-1.23195577 158.620508,3.69586731 C150.085268,8.62369039 144.827344,17.730683 144.827344,27.5863289 L144.827344,27.5863289 Z" id="路径" fill="#504B5A"></path>
                <path d="M158.620703,27.5863289 C158.620703,35.2039752 164.796026,41.3792977 172.413672,41.3792977 C180.031318,41.3792977 186.206641,35.2039752 186.206641,27.5863289 C186.206641,19.9686827 180.031318,13.7933602 172.413672,13.7933602 C164.796026,13.7933602 158.620703,19.9686827 158.620703,27.5863289 L158.620703,27.5863289 Z" id="路径" fill="#625D6B"></path>
                <path d="M6.89648438,79.3105477 C6.89648438,119.303514 48.5803482,151.72422 100,151.72422 C151.419652,151.72422 193.103516,119.303514 193.103516,79.3105477 C193.103516,39.317581 151.419652,6.89687582 100,6.89687582 C48.5803482,6.89687582 6.89648438,39.317581 6.89648438,79.3105477 Z" id="路径" fill="#EDEDEE"></path>
                <path d="M127.586328,144.827735 C122.314844,144.827735 117.172266,144.307813 112.20625,143.326173 C110.436328,142.976173 110.417188,140.494532 112.180078,140.110548 C127.153906,136.850391 137.93125,127.446876 137.93125,113.79336 C137.93125,100.000391 119.390625,79.3105477 100.000391,79.3105477 C84.1976562,79.3105477 68.9996094,93.0414071 63.9097656,105.590626 C63.2664063,107.177735 61.028125,107.219923 60.2101562,105.715235 C54.7898437,95.7457039 51.7242187,84.4222664 51.7242187,72.4140633 C51.7242187,43.5492196 69.4203125,18.6359383 95.0183594,7.00234457 C45.915625,9.01640707 6.89648437,40.6175789 6.89648437,79.3105477 C6.89648437,119.303516 48.5804687,151.72422 100,151.72422 C115.976172,151.72422 131.009375,148.590235 144.147656,143.075782 C138.703795,144.238104 133.15289,144.825311 127.586328,144.827735 L127.586328,144.827735 Z" id="路径" fill="#DCDBDE"></path>
                <path d="M72.4136719,68.9656258 C72.4136719,79.3105477 65.5171875,106.896485 48.2757813,106.896485 C37.9308594,106.896485 27.5859375,96.5515633 31.034375,82.7585946 C34.4828125,68.9656258 48.2757813,55.1722664 58.6207031,55.1722664 C66.2382812,55.1722664 72.4136719,61.3480477 72.4136719,68.9656258 L72.4136719,68.9656258 Z M127.586328,68.9656258 C127.586328,79.3105477 134.482812,106.896485 151.724219,106.896485 C162.069141,106.896485 172.414062,96.5515633 168.965625,82.7585946 C165.517187,68.9656258 151.724219,55.1722664 141.379297,55.1722664 C133.761719,55.1722664 127.586328,61.3480477 127.586328,68.9656258 Z M133.472656,111.355079 C132.826128,110.708285 131.949088,110.344897 131.03457,110.344897 C130.120053,110.344897 129.243013,110.708285 128.596484,111.355079 L125.357031,114.59297 C123.828125,116.11836 121.639453,116.848829 119.504297,116.546095 L103.448438,114.251563 L103.448438,105.009376 C103.842578,104.869141 104.247656,104.772657 104.626563,104.583595 L110.267188,101.763282 C112.428388,100.682886 113.793543,98.4740171 113.793359,96.0578133 L113.793359,96.0343758 C113.793359,92.5109383 110.9375,89.6550789 107.414063,89.6550789 L92.5863281,89.6550789 C89.0628906,89.6550789 86.2070313,92.5109383 86.2070313,96.0343758 L86.2070313,96.0574227 C86.2070305,98.4735745 87.5721314,100.682355 89.7332031,101.762891 L95.3738281,104.583204 C95.7523438,104.772266 96.1578125,104.869141 96.5519531,105.008985 L96.5519531,114.250782 L80.4992188,116.543751 C78.3339844,116.858595 76.171875,116.11797 74.6433594,114.594141 L71.4035156,111.354688 C70.7569872,110.707894 69.8799469,110.344506 68.9654297,110.344506 C68.0509124,110.344506 67.1738722,110.707894 66.5273438,111.354688 C65.8805495,112.001217 65.5171619,112.878257 65.5171619,113.792774 C65.5171619,114.707292 65.8805495,115.584332 66.5273438,116.23086 L69.7671875,119.472266 C72.825,122.525001 77.2160156,123.986329 81.4722656,123.371876 L100,120.725001 L118.530859,123.373829 C119.170703,123.464845 119.814063,123.508595 120.453516,123.508595 C124.083594,123.508595 127.636328,122.065626 130.232813,119.471095 L133.472656,116.231641 C134.11957,115.585097 134.483034,114.707973 134.483034,113.79336 C134.483034,112.878747 134.11957,112.001623 133.472656,111.355079 L133.472656,111.355079 Z" id="形状" fill="#504B5A"></path>
                <path d="M58.6207031,77.5863289 C55.7652344,77.5863289 53.4484375,75.2710946 53.4484375,72.4140633 L53.4484375,68.9656258 C53.4484375,66.1082039 55.7652344,63.7933602 58.6207031,63.7933602 C61.4761719,63.7933602 63.7929687,66.1085946 63.7929687,68.9656258 L63.7929687,72.4140633 C63.7929687,75.2710946 61.4761719,77.5863289 58.6207031,77.5863289 L58.6207031,77.5863289 Z M141.379297,77.5863289 C138.523828,77.5863289 136.207031,75.2710946 136.207031,72.4140633 L136.207031,68.9656258 C136.207031,66.1082039 138.523828,63.7933602 141.379297,63.7933602 C144.234766,63.7933602 146.551562,66.1085946 146.551562,68.9656258 L146.551562,72.4140633 C146.551562,75.2710946 144.234766,77.5863289 141.379297,77.5863289 Z" id="形状" fill="#8D8A94"></path>
            </g>
        </g>
    </g>
</svg>