<?xml version="1.0" standalone="no"?><!DOCTYPE svg PUBLIC "-//W3C//DTD SVG 1.1//EN" "http://www.w3.org/Graphics/SVG/1.1/DTD/svg11.dtd"><svg t="1667895198536" class="icon" viewBox="0 0 1024 1024" version="1.1" xmlns="http://www.w3.org/2000/svg" p-id="4970" xmlns:xlink="http://www.w3.org/1999/xlink" width="200" height="200"><path d="M516.2496 510.5664m-445.4912 0a445.4912 445.4912 0 1 0 890.9824 0 445.4912 445.4912 0 1 0-890.9824 0Z" fill="#FFEFEB" p-id="4971"></path><path d="M294.9632 326.0416c-5.888 0-11.8272-2.1504-16.4864-6.5536l-39.8848-37.5808a24.02304 24.02304 0 0 1-0.9728-33.9456 24.02304 24.02304 0 0 1 33.9456-0.9728l39.8848 37.5808a24.02304 24.02304 0 0 1 0.9728 33.9456c-4.7104 5.0176-11.0592 7.5264-17.4592 7.5264z" fill="#F78887" p-id="4972"></path><path d="M740.608 326.0416c-6.4 0-12.7488-2.5088-17.4592-7.5264a24.02304 24.02304 0 0 1 0.9728-33.9456l39.8848-37.5808a24.02304 24.02304 0 0 1 33.9456 0.9728 24.02304 24.02304 0 0 1-0.9728 33.9456l-39.8848 37.5808c-4.6592 4.4032-10.5472 6.5536-16.4864 6.5536z" fill="#F55857" p-id="4973"></path><path d="M517.7856 256.4096a24.0128 24.0128 0 0 1-24.0128-24.0128V171.52a24.0128 24.0128 0 0 1 48.0256 0v60.8768c0 13.2608-10.752 24.0128-24.0128 24.0128z" fill="#F78887" p-id="4974"></path><path d="M788.8896 724.4288h-38.7584v-219.648c0-126.5664-102.9632-229.5296-229.5296-229.5296S291.072 378.2144 291.072 504.7808v219.6992h-30.7712a24.0128 24.0128 0 0 0 0 48.0256H788.8896c13.2608 0 24.0128-10.752 24.0128-24.0128 0-13.2608-10.752-24.064-24.0128-24.064z m-175.6672-162.4064l-93.6448 99.584c-4.7104 5.0176-11.1104 7.5776-17.5104 7.5776a23.97184 23.97184 0 0 1-17.4592-40.448l55.6032-59.136H448.7168c-9.7792 0-18.5344-5.888-22.2208-14.9504-3.6864-9.0112-1.536-19.4048 5.4272-26.2144l91.392-89.6a24.0128 24.0128 0 0 1 33.9456 0.3584 24.0128 24.0128 0 0 1-0.3584 33.9456l-49.408 48.4352h88.2176c9.5744 0 18.2272 5.6832 22.0672 14.4896 3.7888 8.7552 1.9968 18.9952-4.5568 25.9584z" fill="#F54341" p-id="4975"></path><path d="M520.6016 275.2512c-126.5664 0-229.5296 102.9632-229.5296 229.5296v218.112c9.2672 2.6112 18.6368 5.0176 28.2112 6.9632 182.5792 37.2224 361.216-61.696 430.848-227.1232-1.1776-125.6448-103.6288-227.4816-229.5296-227.4816z m92.6208 286.7712l-93.6448 99.584c-4.7104 5.0176-11.1104 7.5776-17.5104 7.5776a23.97184 23.97184 0 0 1-17.4592-40.448l55.6032-59.136H448.7168c-9.7792 0-18.5344-5.888-22.2208-14.9504s-1.536-19.4048 5.4272-26.2144l91.392-89.6a24.0128 24.0128 0 0 1 33.9456 0.3584 24.0128 24.0128 0 0 1-0.3584 33.9456l-49.408 48.4352h88.2176c9.5744 0 18.2272 5.6832 22.0672 14.4896 3.7888 8.7552 1.9968 18.9952-4.5568 25.9584z" fill="#F55857" p-id="4976"></path><path d="M520.6016 275.2512c-126.5664 0-229.5296 102.9632-229.5296 229.5296v96.2048c54.272-0.9216 106.9568-11.9296 155.8016-31.5392a23.9616 23.9616 0 0 1-20.3776-14.7968c-3.6864-9.0112-1.536-19.4048 5.4272-26.2144l91.392-89.6a24.0128 24.0128 0 0 1 33.9456 0.3584 24.0128 24.0128 0 0 1-0.3584 33.9456l-49.408 48.4352h27.904c63.3856-44.288 115.2-105.216 148.3776-178.0224-41.6256-42.1376-99.3792-68.3008-163.1744-68.3008z" fill="#F67170" p-id="4977"></path><path d="M297.5744 450.7136c106.0864-22.4768 200.4992-83.968 263.936-171.7248-13.2608-2.4064-26.9312-3.7376-40.9088-3.7376-107.9296 0-198.656 74.9056-223.0272 175.4624z" fill="#F78887" p-id="4978"></path></svg>