<?xml version="1.0" encoding="UTF-8"?>
<svg width="100px" height="100px" viewBox="0 0 100 100" version="1.1" xmlns="http://www.w3.org/2000/svg" xmlns:xlink="http://www.w3.org/1999/xlink">
    <title>摄像机</title>
    <g id="摄像机" stroke="none" stroke-width="1" fill="none" fill-rule="evenodd">
        <g id="_定位小" transform="translate(8.000000, 0.000000)" fill="#3456E6" fill-rule="nonzero">
            <path d="M12.2015538,70.7086385 C4.39248828,62.9633469 -1.77635684e-15,52.4201273 -1.77635684e-15,41.4214435 C-1.77635684e-15,30.4227597 4.39248828,19.8795402 12.2015538,12.1342486 C28.4722176,-4.04474954 54.8552761,-4.04474954 71.1259399,12.1342486 C78.9362891,19.8797023 83.3295943,30.4238174 83.3295943,41.4235268 C83.3295943,52.4232362 78.9362891,62.9673514 71.1259399,70.7128051 L41.6637468,100 L12.2015538,70.7086385 Z" id="形状"></path>
        </g>
        <circle id="椭圆形" fill="#FFFFFF" cx="50" cy="41" r="36"></circle>
        <circle id="椭圆形" fill="#C8D1F9" cx="50" cy="41" r="31"></circle>
        <g id="监控" transform="translate(28.000000, 23.000000)" fill="#3456E6" fill-rule="nonzero">
            <path d="M0,19.7750516 C0,19.1540636 0.465991012,18.8500694 1.03598007,19.1010646 L5.42289565,21.0270275 C5.99288466,21.2770227 6.45887573,21.989009 6.45887573,22.609997 L6.45887573,25.1169488 L13.8087342,25.1169488 L15.2287069,22.0480079 L19.5726233,24.067969 L17.5186629,28.5078835 C17.1247726,29.3544757 16.2754431,29.8955965 15.3417048,29.8948569 L6.45687575,29.8948569 L6.45687575,32.4018086 C6.45687575,33.0237966 5.9918847,33.7347829 5.42089567,33.9847781 L1.03598007,35.9127411 C0.465991063,36.1617362 0,35.859742 0,35.237754 L0,19.7750516 Z M41.3692039,19.9440484 L38.3742615,26.3459252 L34.089344,24.3539635 L41.3692039,19.9440484 Z M13.356743,0.210428136 L43.1191702,14.0461618 C44.2461485,14.5721517 44.2991475,15.5281333 43.235168,16.172121 L29.8884248,24.2579654 C28.8244453,24.901953 27.0304798,24.9999511 25.9015015,24.4759612 L6.27487925,15.3521367 C5.14581747,14.8245405 4.65584148,13.4833654 5.17890035,12.3521945 L10.3468009,1.30240712 C10.8803777,0.174017512 12.2237736,-0.313354036 13.356743,0.210428136 Z" id="形状"></path>
        </g>
    </g>
</svg>