<?xml version="1.0" encoding="UTF-8"?>
<svg width="100px" height="100px" viewBox="0 0 100 100" version="1.1" xmlns="http://www.w3.org/2000/svg" xmlns:xlink="http://www.w3.org/1999/xlink">
    <title>生态设备</title>
    <g id="生态设备" stroke="none" stroke-width="1" fill="none" fill-rule="evenodd">
        <g id="_定位小" transform="translate(8.000000, 0.000000)" fill="#7AE634" fill-rule="nonzero">
            <path d="M12.2015538,70.7086385 C4.39248828,62.9633469 -1.77635684e-15,52.4201273 -1.77635684e-15,41.4214435 C-1.77635684e-15,30.4227597 4.39248828,19.8795402 12.2015538,12.1342486 C28.4722176,-4.04474954 54.8552761,-4.04474954 71.1259399,12.1342486 C78.9362891,19.8797023 83.3295943,30.4238174 83.3295943,41.4235268 C83.3295943,52.4232362 78.9362891,62.9673514 71.1259399,70.7128051 L41.6637468,100 L12.2015538,70.7086385 Z" id="形状"></path>
        </g>
        <circle id="椭圆形" fill="#FFFFFF" cx="50" cy="41" r="36"></circle>
        <circle id="椭圆形" fill="#CEF2B7" cx="50" cy="41" r="31"></circle>
        <g id="环境" transform="translate(30.000000, 21.000000)" fill="#7AE634" fill-rule="nonzero">
            <path d="M35.2911149,5.51596014 C30.3764825,7.65374542 28.4055983,10.4683267 24.2219442,13.8513393 C25.8179057,14.7250302 27.0428146,15.9359097 28.1346863,17.295307 C29.2231717,18.6455127 30.1360481,20.1108559 31.0019987,21.7106875 C30.8336463,21.6149008 30.7465675,21.561686 30.6604562,21.5046009 C28.8613108,20.3420986 27.0244313,19.2516781 25.0820896,18.3576688 C23.7938066,17.7568248 22.4663383,17.2387058 21.0522748,17.0171386 C20.806519,16.9779531 20.6333289,17.0171386 20.4606225,17.1995203 C19.2879609,18.4631309 16.8076656,19.8515545 15.6819298,21.1538668 C10.9124288,26.6882102 8.66192477,32.7803419 6.35385199,39.7127844 C6.32434195,39.8085711 6.3016047,39.9091955 6.27209465,40.0344923 L29.3184747,40.0344923 C30.3484237,40.0344923 31.3391873,39.8284057 32.2815738,39.4147813 C34.3061566,38.5401228 35.8198769,37.0699419 37.0181784,35.2587022 C39.0214752,32.2181997 39.935803,28.8211578 39.9648292,25.2277047 C40.0262682,16.9015172 39.988534,8.57532971 39.988534,0.259301406 C39.988534,0.17754406 39.9783748,0.0914327719 39.9648292,0 L14.1585341,0 C12.7551136,0 11.3599172,0.115621336 9.97923397,0.417978386 C4.46085498,1.61966625 0.463452886,6.20243158 0.071114378,11.8185324 C-0.00677279807,12.885248 0.00774034017,13.9664769 0.00193508499,15.0423842 C-0.00241885624,21.9516056 0.00193508499,28.8598595 0.00193508499,35.7734349 L0.00193508499,36.0854673 C0.117556421,35.9988723 0.16641732,35.9122772 0.208505422,35.8310036 C1.48953177,33.6632245 2.72459985,31.473192 4.05690596,29.3358904 C5.38824452,27.1976214 6.8893868,25.1701359 8.46986757,23.2103785 C8.60483976,23.0468638 8.6193529,22.925921 8.49357237,22.7580523 C8.29280729,22.4992347 8.11864962,22.2147772 7.91788454,21.9607973 C6.18549959,19.7557678 3.97466484,18.1849624 1.47066469,16.9934338 C1.1320248,16.8299191 0.791933586,16.6857552 0.435394152,16.527562 C0.474095854,16.5028897 0.488608992,16.493698 0.503122131,16.493698 C2.35354728,16.3398588 4.19574831,16.3684013 6.01279324,16.7815419 C8.0668861,17.2570891 9.90328188,18.1220722 11.3173453,19.7456086 C11.3362124,19.7649594 11.3657225,19.7697971 11.3976514,19.7838265 C11.5045648,19.6735267 11.5998678,19.573386 11.7024273,19.4674401 C13.9180997,17.0747073 16.3016408,14.8687103 18.913522,12.9045989 C23.0057432,9.82491093 27.4588579,7.47571759 32.4305753,6.17388908 C33.3623188,5.91845784 34.3293776,5.73075459 35.2911149,5.51596014 Z" id="路径"></path>
        </g>
    </g>
</svg>