<?xml version="1.0" encoding="UTF-8"?>
<svg width="100px" height="100px" viewBox="0 0 100 100" version="1.1" xmlns="http://www.w3.org/2000/svg" xmlns:xlink="http://www.w3.org/1999/xlink">
    <title>红外相机</title>
    <g id="红外相机" stroke="none" stroke-width="1" fill="none" fill-rule="evenodd">
        <g id="_定位小" transform="translate(8.000000, 0.000000)" fill="#34B2E6" fill-rule="nonzero">
            <path d="M12.2015538,70.7086385 C4.39248828,62.9633469 -1.77635684e-15,52.4201273 -1.77635684e-15,41.4214435 C-1.77635684e-15,30.4227597 4.39248828,19.8795402 12.2015538,12.1342486 C28.4722176,-4.04474954 54.8552761,-4.04474954 71.1259399,12.1342486 C78.9362891,19.8797023 83.3295943,30.4238174 83.3295943,41.4235268 C83.3295943,52.4232362 78.9362891,62.9673514 71.1259399,70.7128051 L41.6637468,100 L12.2015538,70.7086385 Z" id="形状"></path>
        </g>
        <circle id="椭圆形" fill="#FFFFFF" cx="50" cy="41" r="36"></circle>
        <circle id="椭圆形" fill="#CCEDFB" cx="50" cy="41" r="31"></circle>
        <g id="抓拍" transform="translate(30.000000, 21.000000)" fill="#34B2E6" fill-rule="nonzero">
            <path d="M35.4789193,39.9999345 L26.2613597,39.9999345 C25.4395721,39.9816077 24.7772138,39.320794 24.7569844,38.4990674 C24.7569844,37.6990687 25.4578668,36.9999394 26.2596206,36.9999394 L35.4823977,36.9999394 C36.2824123,36.9999394 36.9850338,36.299071 36.9850338,35.4990723 L36.9850338,27.7999544 C36.9850338,26.9999558 37.6859162,26.2990874 38.4894091,26.2990874 C39.2894237,26.2990874 39.9920452,26.9999558 39.9920452,27.7999544 L39.9920452,35.4990723 C40.0911775,37.8990683 37.9867912,39.9999345 35.4789193,39.9999345 Z M12.3306706,39.9999675 L4.6105296,39.9999675 C3.38813945,40.0045643 2.21432808,39.5217453 1.34898281,38.6583757 C0.48363753,37.7950062 -0.00184956708,36.6223152 5.29555814e-06,35.399942 L5.29555814e-06,27.6990851 C5.29555814e-06,26.8990864 0.702632149,26.1999571 1.50438592,26.1999571 C2.30440052,26.1999571 3.00702205,26.8990864 3.00702205,27.6990851 L3.00702205,35.399942 C3.00702205,36.1999407 3.70964358,36.89907 4.51139735,36.89907 L12.2297991,36.89907 C13.0298137,36.89907 13.7306961,37.5999384 13.7306961,38.3999371 C13.8315676,39.299066 13.1306852,39.8990651 12.3289314,39.9999675 L12.3306706,39.9999675 Z M1.50438592,13.8991077 C0.683253946,13.8808189 0.0211524131,13.2210268 1.06215147e-05,12.3999797 L1.06215147e-05,4.59999248 C1.06215147e-05,2.09912698 2.10439689,0 4.6105296,0 L12.3306706,0 C13.1306852,0 13.8333067,0.699129306 13.8333067,1.49912799 C13.8333067,2.29912667 13.1324243,3 12.3306706,3 L4.6105296,3 C3.79075522,3.02010878 3.13069717,3.67938887 3.10963261,4.49912306 L3.10963261,12.19998 C3.10963261,13.099109 2.40701108,13.7999774 1.50438592,13.8991077 Z M38.4894091,13.8991077 C37.6682771,13.8808189 37.0061756,13.2210268 36.9850338,12.3999797 L36.9850338,4.59999248 C36.9648045,3.77826587 36.3024461,3.11745211 35.4806585,3.09912535 L26.2596206,3.09912535 C25.4391673,3.07992342 24.7780881,2.42038759 24.7569844,1.59999736 C24.7569844,0.799998682 25.3569954,0 26.1604883,0 L35.3815263,0 C37.9867912,0 39.9903061,2 39.9903061,4.59999248 L39.9903061,12.2991103 C40.0911775,13.099109 39.3920343,13.7999774 38.4894091,13.8991077 L38.4894091,13.8991077 Z M8.3323367,10.5478088 L11.8141394,10.5478088 L11.8141394,8.86085506 L8.3323367,8.86085506 L8.3323367,10.5478088 Z" id="形状"></path>
            <path d="M32.7564907,11.5410881 C33.7165199,11.5410881 34.5636044,12.3616715 34.5071321,13.4063712 L34.5071321,27.9386385 C34.5071321,28.9833382 33.7165199,29.8039216 32.7000184,29.8039216 L8.08162351,29.8039216 C7.0668868,29.8039216 6.2745098,28.9833382 6.2745098,27.9386385 L6.2745098,13.4063712 C6.2745098,12.3616715 7.06512206,11.5410881 8.08338829,11.5410881 L13.6864996,11.5410881 C14.1365133,11.2128547 14.6465288,10.6640344 15.1565443,9.7852161 C15.7918577,8.73345761 16.3495217,8.62750512 16.5489395,8.62750512 C16.5750039,8.627054 16.6010459,8.62942137 16.626589,8.63463463 L23.1332572,8.63463463 C23.1332572,8.63463463 25.1697897,8.63463463 25.7345127,9.7852161 C26.246293,10.71874 26.6963066,11.2675603 27.1498498,11.5410881 L32.754726,11.5410881 L32.7564907,11.5410881 Z M20.4190571,16.2404721 C18.9366591,16.2404721 17.5707353,17.00635 16.8295363,18.252225 C16.0899938,19.490186 16.0899938,21.0342403 16.8295363,22.2722013 C17.5885888,23.527762 18.9518673,24.2918137 20.4190571,24.2840142 C22.7044206,24.2751306 24.5556534,22.4804353 24.5697714,20.2604484 C24.5697714,19.1945724 24.1303464,18.171049 23.3520874,17.417524 C22.5640476,16.6598923 21.5122358,16.2384234 20.4190571,16.2422368 L20.4190571,16.2404721 L20.4190571,16.2404721 Z M29.782871,18.2169311 C30.4128901,18.2169311 30.9952608,17.8922271 31.3111527,17.3628185 C31.6288094,16.8334098 31.6288094,16.1804725 31.3146822,15.6510639 C30.9924528,15.1160225 30.4127595,14.7896636 29.7881653,14.7916481 C28.814018,14.7898925 28.0234058,15.5557703 28.0216381,16.5016471 C28.0198762,17.4475238 28.8087237,18.2134016 29.782871,18.2151664 L29.782871,18.2169311 Z" id="形状"></path>
        </g>
    </g>
</svg>